<svg width="26" height="26" viewBox="0 0 26 26" fill="none" xmlns="http://www.w3.org/2000/svg">
<g clip-path="url(#clip0_226_894)">
<path d="M25.6481 15.9847C27.297 8.99853 22.9703 1.99841 15.9841 0.349518C8.9979 -1.29937 1.99778 3.02736 0.348893 10.0136C-1.3 16.9997 3.02674 23.9999 10.0129 25.6488C16.9991 27.2977 23.9992 22.9709 25.6481 15.9847Z" fill="#FF6651"/>
<path d="M16.4526 15.9726C16.1759 16.159 14.8717 15.6508 13.3981 15.6565C11.868 15.6621 10.3944 16.063 10.2081 15.8484C10.0556 15.6678 10.0669 15.3855 10.2476 15.0185C10.575 14.3522 11.5631 13.2625 13.2117 13.2625C13.2682 13.2625 13.3247 13.2625 13.3811 13.2625C15.4193 13.3529 16.1929 14.6853 16.3792 15.0919C16.5655 15.4927 16.6389 15.8371 16.4469 15.967L16.4526 15.9726Z" fill="#401800"/>
<path d="M14.3974 15.5209C14.3974 15.5943 13.9344 15.4419 13.3473 15.4419C12.7601 15.4419 12.2858 15.6 12.2858 15.5097C12.2858 15.4193 12.6697 15.041 13.3303 15.0467C14.0474 15.0523 14.3974 15.425 14.3974 15.5209Z" fill="#ED1C42"/>
<path d="M6.40826 12.9464C6.18242 12.9464 5.97916 12.7826 5.93964 12.5455C5.89447 12.2858 6.0695 12.0373 6.33486 11.9978L9.14659 11.5292L5.83236 9.61519C5.60652 9.48533 5.52748 9.19174 5.65734 8.96025C5.7872 8.73441 6.08079 8.65536 6.30663 8.78522L10.7783 11.3655C10.9533 11.4671 11.0437 11.6647 11.0098 11.8623C10.9759 12.0599 10.8178 12.218 10.6202 12.2462L6.49295 12.9351C6.49295 12.9351 6.44214 12.9407 6.41391 12.9407L6.40826 12.9464Z" fill="#410000"/>
<mask id="path-5-inside-1_226_894" fill="white">
<path d="M19.8515 13.031C19.8515 13.031 19.8007 13.031 19.7724 13.0254L15.6452 12.3366C15.4476 12.3027 15.2895 12.1503 15.2556 11.9526C15.2217 11.755 15.3121 11.5574 15.4871 11.4558L19.9587 8.87556C20.1846 8.74005 20.4782 8.82475 20.608 9.05059C20.7379 9.27643 20.6645 9.57002 20.433 9.70553L17.1188 11.6195L19.9305 12.0882C20.1902 12.1333 20.3653 12.3761 20.3257 12.6358C20.2862 12.8673 20.083 13.0367 19.8571 13.0367L19.8515 13.031Z"/>
</mask>
<path d="M19.8515 13.031C19.8515 13.031 19.8007 13.031 19.7724 13.0254L15.6452 12.3366C15.4476 12.3027 15.2895 12.1503 15.2556 11.9526C15.2217 11.755 15.3121 11.5574 15.4871 11.4558L19.9587 8.87556C20.1846 8.74005 20.4782 8.82475 20.608 9.05059C20.7379 9.27643 20.6645 9.57002 20.433 9.70553L17.1188 11.6195L19.9305 12.0882C20.1902 12.1333 20.3653 12.3761 20.3257 12.6358C20.2862 12.8673 20.083 13.0367 19.8571 13.0367L19.8515 13.031Z" fill="#410000"/>
<path d="M19.8515 13.031L20.5586 12.324L20.2657 12.031L19.8515 12.031L19.8515 13.031ZM19.7724 13.0254L19.9685 12.0448L19.9528 12.0417L19.937 12.039L19.7724 13.0254ZM15.6452 12.3366L15.4762 13.3222L15.4806 13.3229L15.6452 12.3366ZM15.4871 11.4558L14.9873 10.5896L14.985 10.591L15.4871 11.4558ZM19.9587 8.87556L20.4585 9.74171L20.4659 9.73744L20.4732 9.73305L19.9587 8.87556ZM20.433 9.70553L20.9331 10.5715L20.9382 10.5685L20.433 9.70553ZM17.1188 11.6195L16.6187 10.7536L14.2047 12.1477L16.9544 12.6059L17.1188 11.6195ZM19.9305 12.0882L20.1019 11.1029L20.0949 11.1018L19.9305 12.0882ZM20.3257 12.6358L21.3115 12.8041L21.313 12.7952L21.3144 12.7863L20.3257 12.6358ZM19.8571 13.0367L19.1499 13.7437L19.4428 14.0367H19.8571V13.0367ZM19.8515 13.031C19.8515 12.031 19.8515 12.031 19.8516 12.031C19.8516 12.031 19.8517 12.031 19.8517 12.031C19.8518 12.031 19.8518 12.031 19.8519 12.031C19.852 12.031 19.8522 12.031 19.8523 12.031C19.8526 12.031 19.8529 12.031 19.8531 12.031C19.8536 12.031 19.8541 12.031 19.8545 12.031C19.8554 12.0311 19.8562 12.0311 19.8569 12.0311C19.8582 12.0311 19.8592 12.0311 19.86 12.0311C19.8614 12.0311 19.8632 12.0312 19.866 12.0313C19.868 12.0314 19.8756 12.0317 19.8872 12.0328C19.895 12.0335 19.926 12.0363 19.9685 12.0448L19.5763 14.006C19.6723 14.0252 19.759 14.0285 19.7791 14.0294C19.7981 14.0302 19.8144 14.0306 19.8261 14.0308C19.8322 14.0309 19.8374 14.031 19.8416 14.031C19.8437 14.031 19.8456 14.031 19.8473 14.031C19.8481 14.031 19.8488 14.031 19.8495 14.031C19.8499 14.031 19.8502 14.031 19.8506 14.031C19.8507 14.031 19.8509 14.031 19.851 14.031C19.8511 14.031 19.8512 14.031 19.8513 14.031C19.8513 14.031 19.8513 14.031 19.8514 14.031C19.8514 14.031 19.8515 14.031 19.8515 13.031ZM19.937 12.039L15.8098 11.3502L15.4806 13.3229L19.6078 14.0118L19.937 12.039ZM15.8141 11.351C16.0174 11.3858 16.2006 11.5469 16.2412 11.7837L14.27 12.1216C14.3783 12.7537 14.8777 13.2196 15.4762 13.3222L15.8141 11.351ZM16.2412 11.7837C16.277 11.9922 16.1804 12.2096 15.9892 12.3206L14.985 10.591C14.4437 10.9053 14.1665 11.5179 14.27 12.1216L16.2412 11.7837ZM15.9869 12.3219L20.4585 9.74171L19.459 8.00941L14.9873 10.5896L15.9869 12.3219ZM20.4732 9.73305C20.1958 9.89955 19.8763 9.78418 19.7411 9.54906L21.4749 8.55212C21.08 7.86531 20.1734 7.58056 19.4443 8.01807L20.4732 9.73305ZM19.7411 9.54906C19.6005 9.30451 19.6796 8.98783 19.9278 8.84251L20.9382 10.5685C21.6494 10.1522 21.8753 9.24835 21.4749 8.55212L19.7411 9.54906ZM19.9329 8.83956L16.6187 10.7536L17.6189 12.4855L20.9331 10.5715L19.9329 8.83956ZM16.9544 12.6059L19.7661 13.0745L20.0949 11.1018L17.2832 10.6331L16.9544 12.6059ZM19.7592 13.0734C19.4851 13.0257 19.2945 12.7657 19.3371 12.4854L21.3144 12.7863C21.4361 11.9865 20.8954 11.241 20.1019 11.1029L19.7592 13.0734ZM19.34 12.4675C19.3816 12.2236 19.5905 12.0367 19.8571 12.0367V14.0367C20.5754 14.0367 21.1908 13.511 21.3115 12.8041L19.34 12.4675ZM20.5643 12.3296L20.5586 12.324L19.1443 13.7381L19.1499 13.7437L20.5643 12.3296Z" fill="#410000" mask="url(#path-5-inside-1_226_894)"/>
</g>
<defs>
<clipPath id="clip0_226_894">
<rect width="26" height="26" fill="white"/>
</clipPath>
</defs>
</svg>
