<svg width="26" height="26" viewBox="0 0 26 26" fill="none" xmlns="http://www.w3.org/2000/svg">
<g clip-path="url(#clip0_226_877)">
<mask id="mask0_226_877" style="mask-type:luminance" maskUnits="userSpaceOnUse" x="0" y="0" width="26" height="26">
<path d="M13 26C20.1797 26 26 20.1797 26 13C26 5.8203 20.1797 0 13 0C5.8203 0 0 5.8203 0 13C0 20.1797 5.8203 26 13 26Z" fill="white"/>
</mask>
<g mask="url(#mask0_226_877)">
<path d="M13 26C20.1797 26 26 20.1797 26 13C26 5.8203 20.1797 0 13 0C5.8203 0 0 5.8203 0 13C0 20.1797 5.8203 26 13 26Z" fill="#9AFA8C"/>
<path opacity="0.7" d="M25.0256 12.9268C25.0256 14.0251 23.8484 14.9151 22.3952 14.9151C20.9419 14.9151 19.7647 14.0251 19.7647 12.9268C19.7647 11.8284 20.9419 10.9385 22.3952 10.9385C23.8484 10.9385 25.0256 11.8284 25.0256 12.9268Z" fill="#E7403D"/>
<path opacity="0.7" d="M6.56195 13.0225C6.56195 14.1209 5.38474 15.0108 3.93153 15.0108C2.47833 15.0108 1.30112 14.1209 1.30112 13.0225C1.30112 11.9242 2.47833 11.0342 3.93153 11.0342C5.38474 11.0342 6.56195 11.9242 6.56195 13.0225Z" fill="#E7403D"/>
<path d="M14.7686 14.1378L12.9099 13.2873L10.6737 14.1378V14.3969C10.6737 15.529 11.5918 16.4471 12.724 16.4471C13.8561 16.4471 14.7743 15.529 14.7743 14.3969V14.1378H14.7686Z" fill="#ED1C42"/>
<path d="M12.8367 14.9827C12.7578 14.9827 12.7015 14.9151 12.7015 14.8362L12.7465 13.5351C12.7465 13.4562 12.8085 13.3886 12.893 13.3999C12.9718 13.3999 13.0282 13.4675 13.0282 13.5464L12.9831 14.8475C12.9831 14.9207 12.9211 14.9827 12.8423 14.9827H12.8367Z" fill="#410000"/>
<path d="M18.1369 12.4593C17.906 12.3917 17.6525 12.5212 17.5849 12.7578C17.568 12.8141 17.1174 14.1997 15.6361 14.1096C14.7179 14.0533 14.1096 13.5914 13.7435 13.2028C14.4588 13.0676 14.9658 12.7071 14.977 12.2734C14.9939 11.6989 14.1322 11.2145 13.062 11.1863C11.9918 11.1581 11.1075 11.6031 11.0906 12.1776C11.0793 12.5776 11.5074 12.9324 12.127 13.1239C11.5524 13.6928 10.7019 14.1321 9.78381 14.0702C8.69109 13.9913 8.43199 12.9099 8.42072 12.8592C8.37003 12.617 8.13346 12.4705 7.89126 12.5212C7.64906 12.5719 7.49698 12.8085 7.54767 13.0507C7.67722 13.6703 8.30244 14.8644 9.71621 14.9601C9.77254 14.9601 9.82887 14.9658 9.88519 14.9658C11.1807 14.9996 12.2396 14.3349 12.9043 13.6027C13.3492 14.149 14.211 14.9207 15.5797 14.9996C17.3371 15.1122 18.2214 13.7435 18.4355 13.0113C18.503 12.7747 18.3735 12.5269 18.1369 12.4593Z" fill="#401800"/>
<path d="M19.1733 12.1044C21.0118 12.1044 22.5022 10.614 22.5022 8.77556C22.5022 6.93708 21.0118 5.4467 19.1733 5.4467C17.3348 5.4467 15.8445 6.93708 15.8445 8.77556C15.8445 10.614 17.3348 12.1044 19.1733 12.1044Z" fill="#401800"/>
<path d="M19.5563 8.91638C18.7396 9.8007 17.5849 10.0654 16.9822 9.5078C16.3795 8.95018 16.5541 7.7786 17.3709 6.89429C18.1876 6.00997 19.3423 5.74524 19.945 6.30286C20.5476 6.86049 20.373 8.03207 19.5563 8.91638Z" fill="white"/>
<path d="M20.6997 10.0598C20.4688 10.3189 20.1478 10.4146 19.9844 10.2626C19.8211 10.1105 19.8718 9.7838 20.1027 9.5247C20.3336 9.2656 20.6547 9.17548 20.818 9.32193C20.9814 9.46838 20.9307 9.8007 20.6997 10.0598Z" fill="white"/>
<path d="M6.92245 12.1044C8.76093 12.1044 10.2513 10.614 10.2513 8.77556C10.2513 6.93708 8.76093 5.4467 6.92245 5.4467C5.08398 5.4467 3.5936 6.93708 3.5936 8.77556C3.5936 10.614 5.08398 12.1044 6.92245 12.1044Z" fill="#401800"/>
<path d="M7.37305 8.84879C6.55633 9.7331 5.40165 9.99783 4.79896 9.44021C4.19628 8.88258 4.37089 7.71101 5.18761 6.82669C6.00434 5.94237 7.15902 5.67764 7.7617 6.23527C8.36439 6.79289 8.18978 7.96447 7.37305 8.84879Z" fill="white"/>
<path d="M8.51646 9.9922C8.28552 10.2513 7.96446 10.3471 7.80112 10.195C7.63777 10.0485 7.68847 9.7162 7.9194 9.45711C8.15034 9.19801 8.4714 9.10225 8.63474 9.25433C8.79809 9.40641 8.74739 9.7331 8.51646 9.9922Z" fill="white"/>
</g>
</g>
<defs>
<clipPath id="clip0_226_877">
<rect width="26" height="26" fill="white"/>
</clipPath>
</defs>
</svg>
