<svg width="26" height="26" viewBox="0 0 26 26" fill="none" xmlns="http://www.w3.org/2000/svg">
<g clip-path="url(#clip0_226_773)">
<mask id="mask0_226_773" style="mask-type:luminance" maskUnits="userSpaceOnUse" x="-1" y="0" width="27" height="27">
<path d="M25.9959 13.2264C26.12 6.04773 20.4011 0.127734 13.2225 0.00368357C6.04383 -0.120367 0.12384 5.5985 -0.00021028 12.7771C-0.12426 19.9558 5.59461 25.8758 12.7732 25.9998C19.9519 26.1239 25.8719 20.405 25.9959 13.2264Z" fill="white"/>
</mask>
<g mask="url(#mask0_226_773)">
<path d="M25.9959 13.2264C26.12 6.04773 20.4011 0.127734 13.2225 0.00368357C6.04383 -0.120367 0.12384 5.5985 -0.00021028 12.7771C-0.12426 19.9558 5.59461 25.8758 12.7732 25.9998C19.9519 26.1239 25.8719 20.405 25.9959 13.2264Z" fill="#FEE895"/>
<path d="M15.2987 15.7371L11.1509 15.7147C10.7912 15.7147 10.5045 15.4224 10.5102 15.0627C10.5102 14.7086 10.8024 14.422 11.1565 14.422L15.3044 14.4444C15.6641 14.4444 15.9507 14.7367 15.9451 15.0964C15.9451 15.4505 15.6528 15.7371 15.2987 15.7371Z" fill="#410000"/>
<path d="M20.5426 9.57156C20.7337 9.19499 20.7955 8.90273 20.7955 8.89711C20.8405 8.65543 20.6831 8.42499 20.4414 8.37441C20.1997 8.32945 20.0199 8.35755 19.8681 8.70601C19.8119 8.83528 19.3173 10.3135 17.4289 10.2235C15.5404 10.128 15.2425 9.05448 15.1189 8.7847C15.0177 8.55988 14.8323 8.36317 14.5175 8.44747C14.2815 8.5093 14.1353 8.75098 14.1972 8.98703C14.259 9.22309 14.3826 9.52097 14.5737 9.82447L14.3714 9.95374C14.3208 9.98185 14.3096 10.0493 14.3377 10.0999C14.3601 10.1336 14.3939 10.1505 14.4276 10.1505C14.4445 10.1505 14.4669 10.1505 14.4838 10.1336L14.6917 9.99871C14.8604 10.2348 15.0683 10.4708 15.3269 10.6732L15.192 10.8867C15.1639 10.9373 15.1751 10.9991 15.2257 11.0329C15.2425 11.0441 15.265 11.0497 15.2819 11.0497C15.3156 11.0497 15.3493 11.0329 15.3718 10.9991L15.5011 10.7968C15.799 11.0048 16.1531 11.1678 16.5633 11.2689L16.5015 11.4713C16.4847 11.5275 16.5128 11.5837 16.569 11.6005C16.5802 11.6005 16.5914 11.6005 16.6027 11.6005C16.6477 11.6005 16.687 11.5724 16.7039 11.5275L16.7713 11.3083C16.9793 11.3476 17.2041 11.3701 17.4401 11.3701C17.457 11.3701 17.4795 11.3701 17.4963 11.3701C17.7661 11.3701 18.0078 11.3364 18.2382 11.2914L18.3001 11.4825C18.3169 11.5275 18.3563 11.5556 18.4012 11.5556C18.4125 11.5556 18.4237 11.5556 18.4349 11.5556C18.4911 11.5387 18.5192 11.4769 18.5024 11.4263L18.4518 11.2577C18.997 11.1228 19.4241 10.8755 19.7501 10.6001L19.8625 10.7687C19.885 10.7968 19.9131 10.8137 19.9468 10.8137C19.9693 10.8137 19.9862 10.808 20.003 10.7968C20.0536 10.7631 20.0649 10.7013 20.0311 10.6507L19.9019 10.454C20.1379 10.2235 20.3122 9.98185 20.4414 9.75703L20.61 9.90878C20.61 9.90878 20.655 9.93688 20.6775 9.93688C20.7056 9.93688 20.7337 9.92564 20.7562 9.90316C20.7955 9.8582 20.7899 9.79637 20.7449 9.75703L20.5426 9.57718V9.57156Z" fill="#410000"/>
<path d="M5.56982 9.3917C5.37872 9.01513 5.3169 8.72287 5.3169 8.71725C5.27194 8.47557 5.42931 8.24514 5.67098 8.19455C5.91266 8.14959 6.09251 8.17769 6.24427 8.52616C6.30047 8.65543 6.79507 10.1336 8.68352 10.0437C10.572 9.94812 10.8699 8.87462 10.9935 8.60484C11.0947 8.38003 11.2801 8.18331 11.5949 8.26762C11.8309 8.32944 11.9771 8.57112 11.9153 8.80718C11.8534 9.04323 11.7298 9.34112 11.5387 9.64462L11.741 9.77389C11.7916 9.80199 11.8028 9.86943 11.7747 9.92002C11.7523 9.95374 11.7185 9.9706 11.6848 9.9706C11.668 9.9706 11.6455 9.9706 11.6286 9.95374L11.4207 9.81885C11.252 10.0549 11.0441 10.291 10.7856 10.4933L10.9204 10.7069C10.9485 10.7575 10.9373 10.8193 10.8867 10.853C10.8699 10.8642 10.8474 10.8699 10.8305 10.8699C10.7968 10.8699 10.7631 10.853 10.7406 10.8193L10.6113 10.6169C10.3134 10.8249 9.95935 10.9879 9.54906 11.0891L9.61089 11.2914C9.62775 11.3476 9.59965 11.4038 9.54344 11.4207C9.5322 11.4207 9.52096 11.4207 9.50972 11.4207C9.46476 11.4207 9.42542 11.3926 9.40855 11.3476L9.34111 11.1284C9.13316 11.1677 8.90834 11.1902 8.67228 11.1902C8.65542 11.1902 8.63294 11.1902 8.61608 11.1902C8.3463 11.1902 8.10462 11.1565 7.87418 11.1115L7.81236 11.3026C7.7955 11.3476 7.75616 11.3757 7.71119 11.3757C7.69995 11.3757 7.68871 11.3757 7.67747 11.3757C7.62127 11.3588 7.59316 11.297 7.61002 11.2464L7.66061 11.0778C7.11543 10.9429 6.68828 10.6956 6.36229 10.4202L6.24989 10.5888C6.2274 10.6169 6.1993 10.6338 6.16558 10.6338C6.1431 10.6338 6.12624 10.6282 6.10938 10.6169C6.05879 10.5832 6.04755 10.5214 6.08127 10.4708L6.21054 10.2741C5.97449 10.0437 5.80025 9.80199 5.67098 9.57717L5.50237 9.72892C5.50237 9.72892 5.45741 9.75703 5.43493 9.75703C5.40683 9.75703 5.37872 9.74579 5.35624 9.7233C5.3169 9.67834 5.32252 9.61652 5.36748 9.57717L5.56982 9.39732V9.3917Z" fill="#410000"/>
</g>
</g>
<defs>
<clipPath id="clip0_226_773">
<rect width="26" height="26" fill="white"/>
</clipPath>
</defs>
</svg>
