<svg width="26" height="26" viewBox="0 0 26 26" fill="none" xmlns="http://www.w3.org/2000/svg">
<mask id="mask0_226_754" style="mask-type:luminance" maskUnits="userSpaceOnUse" x="0" y="0" width="26" height="26">
<path d="M13 26C20.1797 26 26 20.1797 26 13C26 5.8203 20.1797 0 13 0C5.8203 0 0 5.8203 0 13C0 20.1797 5.8203 26 13 26Z" fill="white"/>
</mask>
<g mask="url(#mask0_226_754)">
<path d="M12.9493 26C20.129 26 25.9493 20.1797 25.9493 13C25.9493 5.8203 20.129 0 12.9493 0C5.76958 0 -0.0507202 5.8203 -0.0507202 13C-0.0507202 20.1797 5.76958 26 12.9493 26Z" fill="#D2FFA0"/>
<path opacity="0.7" d="M24.2813 11.8448C24.2813 12.9437 23.1036 13.8284 21.6497 13.8284C20.1959 13.8284 19.0182 12.938 19.0182 11.8448C19.0182 10.7516 20.1959 9.8613 21.6497 9.8613C23.1036 9.8613 24.2813 10.7516 24.2813 11.8448Z" fill="#E7403D"/>
<path opacity="0.7" d="M5.03771 13.8396C6.49108 13.8396 7.66927 12.9516 7.66927 11.8561C7.66927 10.7606 6.49108 9.87256 5.03771 9.87256C3.58435 9.87256 2.40616 10.7606 2.40616 11.8561C2.40616 12.9516 3.58435 13.8396 5.03771 13.8396Z" fill="#E7403D"/>
<path d="M12.938 15.5977C10.7347 15.5977 9.72604 13.9354 9.50064 13.0507C9.41048 12.707 9.61897 12.352 9.96834 12.2618C10.3121 12.1716 10.6615 12.3801 10.7516 12.7239C10.7967 12.8929 11.2362 14.3017 12.938 14.3017H12.9774C14.8764 14.2735 15.2146 12.7577 15.2315 12.6957C15.3047 12.3463 15.6484 12.1209 15.9922 12.1886C16.3416 12.2562 16.567 12.5886 16.4993 12.938C16.4993 12.9662 15.964 15.5527 12.9944 15.5921C12.9718 15.5921 12.9549 15.5921 12.9324 15.5921L12.938 15.5977Z" fill="#410000"/>
<path d="M5.66321 9.24144C5.47162 8.86389 5.40963 8.57087 5.40963 8.56523C5.36455 8.32293 5.52233 8.09189 5.76464 8.04118C6.00694 7.9961 6.23798 8.15388 6.2887 8.39618C6.2887 8.41309 6.64934 10.1374 8.7343 10.1656H8.77938C10.6727 10.1656 11.1405 8.51452 11.1574 8.43563C11.2193 8.19896 11.4616 8.05245 11.6983 8.11443C11.935 8.17642 12.0815 8.41872 12.0195 8.65539C11.9575 8.89207 11.8336 9.19072 11.642 9.49501L11.8448 9.62462C11.8955 9.65279 11.9068 9.72041 11.8786 9.77113C11.8561 9.80494 11.8223 9.82184 11.7885 9.82184C11.7716 9.82184 11.749 9.82184 11.7321 9.80494L11.5236 9.6697C11.3546 9.90637 11.1461 10.1374 10.8869 10.3459L11.0221 10.56C11.0503 10.6107 11.039 10.6727 10.9883 10.7065C10.9714 10.7178 10.9489 10.7234 10.932 10.7234C10.8981 10.7234 10.8643 10.7065 10.8418 10.6727L10.7122 10.4699C10.4135 10.6784 10.0585 10.8418 9.64717 10.9432L9.70916 11.1461C9.72606 11.2024 9.69789 11.2588 9.64154 11.2757C9.63027 11.2757 9.61899 11.2757 9.60772 11.2757C9.56264 11.2757 9.5232 11.2475 9.50629 11.2024L9.43867 10.9827C9.23018 11.0221 9.00478 11.0446 8.76811 11.0446C8.7512 11.0446 8.72866 11.0446 8.71176 11.0446C8.44127 11.0446 8.19897 11.0108 7.96793 10.9658L7.90595 11.1573C7.88904 11.2024 7.8496 11.2306 7.80452 11.2306C7.79325 11.2306 7.78198 11.2306 7.77071 11.2306C7.71436 11.2137 7.68618 11.1517 7.70309 11.101L7.7538 10.9319C7.2072 10.7967 6.77894 10.5488 6.45211 10.2726L6.33941 10.4417C6.31687 10.4699 6.28869 10.4868 6.25488 10.4868C6.23234 10.4868 6.21544 10.4811 6.19853 10.4699C6.14782 10.4361 6.13655 10.3741 6.17036 10.3234L6.29997 10.1261C6.06329 9.8951 5.88861 9.65279 5.759 9.42739L5.58995 9.57954C5.58995 9.57954 5.54487 9.60771 5.52233 9.60771C5.49416 9.60771 5.46598 9.59644 5.44344 9.5739C5.404 9.52882 5.40963 9.46684 5.45471 9.42739L5.65757 9.24707L5.66321 9.24144Z" fill="#410000"/>
<path d="M21.1764 9.15692C21.368 8.77937 21.43 8.48635 21.43 8.48072C21.4751 8.23841 21.3173 8.00737 21.075 7.95666C20.8327 7.91158 20.6016 8.06936 20.5509 8.31167C20.5509 8.32857 20.1903 10.0529 18.1053 10.0811H18.0603C16.1669 10.0811 15.6992 8.43 15.6823 8.35111C15.6203 8.11444 15.378 7.96793 15.1413 8.02991C14.9046 8.0919 14.7581 8.33421 14.8201 8.57088C14.8821 8.80755 15.0061 9.1062 15.1977 9.4105L14.9948 9.5401C14.9441 9.56828 14.9328 9.6359 14.961 9.68661C14.9835 9.72042 15.0173 9.73733 15.0512 9.73733C15.0681 9.73733 15.0906 9.73733 15.1075 9.72042L15.316 9.58518C15.485 9.82185 15.6935 10.0529 15.9528 10.2614L15.8175 10.4755C15.7893 10.5262 15.8006 10.5882 15.8513 10.622C15.8682 10.6333 15.8908 10.6389 15.9077 10.6389C15.9415 10.6389 15.9753 10.622 15.9978 10.5882L16.1274 10.3854C16.4261 10.5939 16.7811 10.7573 17.1925 10.8587L17.1305 11.0616C17.1136 11.1179 17.1417 11.1743 17.1981 11.1912C17.2094 11.1912 17.2206 11.1912 17.2319 11.1912C17.277 11.1912 17.3164 11.163 17.3333 11.1179L17.401 10.8981C17.6095 10.9376 17.8349 10.9601 18.0715 10.9601C18.0884 10.9601 18.111 10.9601 18.1279 10.9601C18.3984 10.9601 18.6407 10.9263 18.8717 10.8812L18.9337 11.0728C18.9506 11.1179 18.99 11.1461 19.0351 11.1461C19.0464 11.1461 19.0577 11.1461 19.0689 11.1461C19.1253 11.1292 19.1534 11.0672 19.1365 11.0165L19.0858 10.8474C19.6324 10.7122 20.0607 10.4642 20.3875 10.1881L20.5002 10.3572C20.5228 10.3854 20.5509 10.4023 20.5847 10.4023C20.6073 10.4023 20.6242 10.4023 20.6411 10.3854C20.6918 10.3515 20.7031 10.2896 20.6693 10.2388L20.5397 10.0416C20.7763 9.81058 20.951 9.56828 21.0806 9.34287L21.2497 9.49502C21.2497 9.49502 21.2948 9.5232 21.3173 9.5232C21.3455 9.5232 21.3736 9.51193 21.3962 9.48939C21.4356 9.44431 21.43 9.38232 21.3849 9.34287L21.1821 9.16255L21.1764 9.15692Z" fill="#410000"/>
</g>
</svg>
