<svg width="26" height="26" viewBox="0 0 26 26" fill="none" xmlns="http://www.w3.org/2000/svg">
<g clip-path="url(#clip0_226_650)">
<mask id="mask0_226_650" style="mask-type:luminance" maskUnits="userSpaceOnUse" x="0" y="0" width="26" height="26">
<path d="M22.6821 21.6678C27.4693 16.3192 27.0143 8.1024 21.6657 3.31514C16.317 -1.47212 8.10027 -1.01705 3.313 4.33157C-1.47426 9.6802 -1.01919 17.897 4.32944 22.6842C9.67806 27.4715 17.8948 27.0164 22.6821 21.6678Z" fill="white"/>
</mask>
<g mask="url(#mask0_226_650)">
<path d="M22.6821 21.6678C27.4693 16.3192 27.0143 8.1024 21.6657 3.31514C16.317 -1.47212 8.10027 -1.01705 3.313 4.33157C-1.47426 9.6802 -1.01919 17.897 4.32944 22.6842C9.67806 27.4715 17.8948 27.0164 22.6821 21.6678Z" fill="#FFA665"/>
<path d="M16.1842 15.1483C15.8785 15.1483 15.6125 14.9332 15.5502 14.6275C15.5389 14.5652 15.1992 13.0481 13.2972 13.0198H13.2576C11.548 13.0198 11.1178 14.435 11.0725 14.5992C10.9763 14.9388 10.6253 15.1483 10.2857 15.0577C9.94035 14.9671 9.73656 14.6218 9.82147 14.2765C10.0479 13.3878 11.0555 11.7292 13.2576 11.7292C13.2802 11.7292 13.2972 11.7292 13.3198 11.7292C15.686 11.7631 16.6484 13.4783 16.8239 14.3784C16.8918 14.7294 16.6654 15.069 16.3144 15.137C16.2748 15.1426 16.2295 15.1483 16.1899 15.1483H16.1842Z" fill="#410000"/>
<path d="M8.50817 12.1028C6.30613 12.1028 5.29851 10.4442 5.07207 9.55541C4.9815 9.2101 5.19095 8.85913 5.53626 8.76856C5.88157 8.67799 6.23254 8.88744 6.32311 9.23275C6.36839 9.40257 6.80427 10.8121 8.50817 10.8121H8.55346C10.4498 10.7838 10.7895 9.26671 10.8065 9.20444C10.88 8.85347 11.2197 8.62704 11.5707 8.70063C11.9216 8.76856 12.1481 9.10821 12.0745 9.45352C11.899 10.3592 10.9367 12.0745 8.57044 12.1028C8.5478 12.1028 8.53082 12.1028 8.50817 12.1028Z" fill="#410000"/>
<path d="M17.9277 12.0065C15.7257 12.0065 14.718 10.3479 14.4916 9.45918C14.401 9.11387 14.6105 8.7629 14.9558 8.67233C15.3011 8.58176 15.6521 8.79121 15.7426 9.13652C15.7879 9.30634 16.2238 10.7159 17.9277 10.7159H17.973C19.875 10.6876 20.209 9.17614 20.226 9.10821C20.2996 8.76291 20.6392 8.53081 20.9845 8.6044C21.3355 8.67233 21.5619 9.00632 21.494 9.35729C21.494 9.38559 20.9619 11.9726 17.99 12.0122C17.9673 12.0122 17.9504 12.0122 17.9277 12.0122V12.0065Z" fill="#410000"/>
<path d="M8.09493 12.0688C8.09493 12.0688 6.92315 11.4801 5.79099 11.6216C4.65883 11.7631 4.23428 12.516 4.5626 13.2972C4.89093 14.0784 5.8759 14.0614 6.2665 13.6821C6.73634 13.2236 6.95145 12.6519 8.09493 12.0745V12.0688Z" fill="#27AAE1"/>
<path d="M18.7542 11.916C18.7542 11.916 19.926 11.3272 21.0581 11.4688C22.1903 11.6103 22.6149 12.3632 22.2865 13.1443C21.9582 13.9255 20.9732 13.9086 20.5826 13.5293C20.1128 13.0708 19.8977 12.499 18.7542 11.9216V11.916Z" fill="#27AAE1"/>
</g>
</g>
<defs>
<clipPath id="clip0_226_650">
<rect width="26" height="26" fill="white"/>
</clipPath>
</defs>
</svg>
